/* XPM */
static char *magick[] = {
/* columns rows colors chars-per-pixel */
"32 32 15 1",
"  c black",
". c #191919",
"X c gray20",
"o c #007f00",
"O c #007f7f",
"+ c #7f7f00",
"@ c #4c4c4c",
"# c #666667",
"$ c gray50",
"% c gray60",
"& c #b2b2b2",
"* c gray80",
"= c gray90",
"- c white",
"; c None",
/* pixels */
";;;;;;;;;;;;;;;;;;;;;;;;;;;;;;;;",
";;;;;;;;;;=;;;;;;;;;;;;;;;;;;;;;",
";;;;;;;;;;======*;;;;;;;;;;;;;;;",
";;;;;;;;;==%.#$&&===**;;;;;;;;;;",
";;;;;;;;;==Xo#o@@X@#$%******;;;;",
";;;;;;;;==@@$$$$o#o@@XXX@@$$**&$",
";;;;;;;;==*&&&o$$$$o#o#@@XXX@&&#",
";;;;;;;=-===*==*&%%$$#o##o@@#&&#",
";;;;;;====#+%&******&&%$#####&&@",
";;;;;;=-=*&%#+%%%&****&&*%%%+&%#",
";;;;;====$O$#-**&+$+$%&&&&&&&&%@",
";;;;;==-+#XX$&***@=&&%@@++%&&&%@",
";;;;==-=%%O#*+##@@*&*&@%$$##%&+@",
";;;;===&%%#&=***@&#@#@X%$$+%#&$@",
";;;==-*$@@X*****@=*&%+X@X@@@#&#@",
";;;=-=&%O##%##+#%***&#%&%%#.#%$X",
";;====%%%@==*&&@%#@+%#%&&&&@#%#X",
";;===@@o@@=***&#=*%$@.#+%&%+#%#X",
";==-*%o#X$@#+&+&=&*&&X*#@X@X$%@X",
";===%%$##=*&$#.$+%&&##*&&&%X%%@X",
"==-&%$%o*=***&%*$#@#@+&&&%%@+%@;",
"==&$#@$@=***&+*=&&&%X#@#+%&@$$@;",
"==***&%+##+$%#**&&&&X**&$#X.%$@;",
"=*=******&&%$@+#+%&%X=**=**X%$X;",
"&&&*******&&&*%%$@X@#%&**=*X%+X;",
";++%+%%&&&**&*&&&&&%$+@X#$%X%#X;",
";;;;;;++$+%+&%&&&&&%&%&%+$@X%#X;",
";;;;;;;;;;;+#++$++%%%&%%%%%%%@X;",
";;;;;;;;;;;;;;;;##+#+$+%$%+%$@X;",
";;;;;;;;;;;;;;;;;;;;;#@###$#+@X;",
";;;;;;;;;;;;;;;;;;;;;;;;;;@@@XX;",
";;;;;;;;;;;;;;;;;;;;;;;;;;;;;;;;"
};
