/* XPM */
static char * icone4_xpm[] = {
"50 50 13 1",
" 	c None",
".	c #FEFEFD",
"+	c #EDEBE9",
"@	c #E4DDDA",
"#	c #CCDAD5",
"$	c #97DD98",
"%	c #B8E2C0",
"&	c #B7CBBE",
"*	c #CFECD6",
"=	c #DEF5E3",
"-	c #70DC70",
";	c #E8F6EE",
">	c #58D758",
"..................................................",
"..................................................",
"..................................................",
"..................................................",
"..................................................",
"..................................................",
"....................+@@@@++#@@....................",
".................@@+$$$%&%#$%%##*.................",
"...............++++%%%$=*=%$%@*$$&=...............",
"..............@@$$%#%=@@@++%-*@+*=&%..............",
".............@%$#$$-#@++@+++@%*@@#*%&;............",
"...........;#&&%$->--$@@&&@@%>#*+#%%&$;...........",
"..........+&##%$-$>>>>$@&&&@&&%%=;#$##%;..........",
"..........&@#$-$-$>>&-&&&&@$+#-*+@@*####..........",
".........&%#&$%@%%-$*#@&&@&++$=>%;+*&*@**.........",
"........*&@%--%=-$-+$+@%++%@+*$=;#@=*&@=#;........",
"........%##&-%$-$$=$=.%$+@+.*;%;+%;***#=#%........",
".......+#*+$-$$%%=****$+.++-$-%*+#=***#;%&;.......",
".......&%#=$$*$$*.%%;+%=.+.-$>-+*=**;+%;*&&.......",
".......#*@##%$$$=.=++.%@.+%-->*%+*;;*+=&%&$.......",
"......+#=*$=*-$$.+..+++++@->--$;;*;.%=;*&##*......",
"......+$*@...;=*;;..;.+.-**-%%%=;**$;+*@#**#......",
"......#*$@..;..++..+..+*>==-$**+**@*%;#*&@*@......",
"......#=$.+.+..++;.+..;=$%$*&##*-%**%=+&+%#@......",
"......#*%.;+...+..@+..+.*%##&%#%+=*%+..@%=%*......",
"......%@%.;+..+...+.+++++&#$%$#%$=*#&*+*+.+&......",
"......*%*;+.+.+...*..+.%*%*%*$$-$$%+#&%*%;.@......",
"......#&*;;..++..+...+.%*%===%;%=;*#;;=.++.&......",
"......*#*#...+.+++...+.=%*;*==.==#$;.;.;++.@......",
"......=%%%+..+...@++.+.==@.=****@;+=;.+=;++@......",
".......%#%.++....+..=%*@@@;+@+..+.#*=*#*.+++......",
".......*#%..@;..+....*@@.+..+.@..++;@%$=.@+.......",
".......;%#*.+.+;+...=@;++@..++@;@.++#=@*+++.......",
"........*#&.+...@+=.=+.;.+++..@.@+@;**@++@........",
"........;%*$+...+.;+%@@@#@@+++#;+.+;#@#.+@........",
".........#*=%+..+...$##;#@@#++#+;*@#%*+.@.........",
"..........#+*=+++...+*###$#;;##+=*#$%**#..........",
"..........;#@;=.@++.+.==*%==**&###%**%&;..........",
"...........;&**.+..++++++@++%##%*=%&$%+...........",
".............&=++...+....+...*#*##&&++............",
"..............@++++.+....+...;#*##&#..............",
"...............+@+..+@+++++++*@@#%+...............",
".................@@+++...+...+#&+.................",
"....................+@@@@@@@@+....................",
"..................................................",
"..................................................",
"..................................................",
"..................................................",
"..................................................",
".................................................."};
