/* XPM */
static char *magick[] = {
/* columns rows colors chars-per-pixel */
"32 32 14 1",
"  c black",
". c #191919",
"X c gray20",
"o c #007f7f",
"O c #4c4c4c",
"+ c #666667",
"@ c gray50",
"# c cyan",
"$ c gray60",
"% c #b2b2b2",
"& c gray80",
"* c gray90",
"= c white",
"- c None",
/* pixels */
"------------------.X .X---------",
"--------------...X+%$oo.--------",
"-----------XXO+@%&&&%o@o--------",
"-------XXXO+$&&&&*&*&$oO--------",
"-----XXX@%&&*&*******#oo--------",
"--.XO@%*&&*&*****====*$oO-------",
".@$o&*&&*&**======**=*%oo-------",
"O*&#$&***====*=*=*==*=&ooX------",
"X&&o%&*==*=*==*====*==*$oX------",
"-$*$#%*====*=*==*==*=**&oO.-----",
"-X&#@$**=*=======*=*===&ooX-----",
"-.$*o#%====*==*=*=*=*===&oO-----",
"--O&&o%**===*=*=======*=&ooX----",
"--X%&#o&*==*==*==*=*===**%oX----",
"---+&%o&*=*==========***#oooX---",
"---o%*o#&===*==*==*=*#%$o$ooX---",
"----+&%o&*====*==**%$ooooo$oo.--",
"----o&%#o*=*===*%%#o$o$o$$ooo.--",
"----X$%o$&*==&%#ooo$o#%&&oo@oo -",
"-----+#%o#&%#$@o$oo%%%&**%o@oo.-",
"-----+%%o$o$ooo$#%****&*&&@oo@X-",
"------o&$#oo%o$%*&o$*&&**&@+ooo.",
"------O%#+o$o&**&oo$&&*&*&%ooo+.",
"------X@&%ooo#*=*Ooo%&*&*&&+OoX-",
"-------O#$o%o@***Ooo%&**&&&$X.--",
"-------O$#$ooo%=*$ooo&&*&%@O----",
"--------+%o$ooo==&Oo$%&&@O------",
"--------o%%#o$o%**$o%&$OX-------",
"--------.o%oooo%**&&$OX---------",
"--------.o%&&ooo%&$oX-----------",
"---------.Xoo&#@oOXO------------",
"------------..OX.X--------------"
};
