/* XPM */
static char *magick[] = {
/* columns rows colors chars-per-pixel */
"32 32 14 1",
"  c black",
". c #191919",
"X c gray20",
"o c #7f7f00",
"O c #4c4c4c",
"+ c #666666",
"@ c gray50",
"# c yellow",
"$ c gray60",
"% c #b2b2b2",
"& c gray80",
"* c gray90",
"= c white",
"- c None",
/* pixels */
"----------@+--------------------",
"---------.oooX------------------",
"-------OX##ooo.-----------------",
"-------o###X-X#X----------------",
"------+o###.+o#.----------------",
"------+o####o##.----------------",
"-------o#######.----------------",
"------.o######X-----------------",
"-----.o#ooo#oXO---------+.o.@---",
"----.o#oX+X.O----------OX##.----",
"---.o##.-------------@.o##XX----",
"--.o#o.O-----O. .   .X##o.+$----",
"-.o#o ----X .+%*=*X.o##XX$%-----",
".o##.---- @&====&Xo##o  O%------",
".## +---.+==$%@O o##X     +----@",
"...O---+.*=% . .o o. .%*@  .... ",
"------- $=$+%.o##.  +====*$OO   ",
"------O && O.o#o  .O&&======&   ",
"------  *+ o##..O+$$$=======&   ",
"-----@  X.o#o.+============*%   ",
"=====O  o##X %%%==========*+&   ",
"=====$ o#o   O+%**$+.X+@@@.     ",
"+%==&X..           ..       .OO ",
"O %=OXX+$O        +$$$$+++@$$$$ ",
"O  %%$$%&$..X@$X .%---%$$$%&---+",
"$   $%*==*$$$$$$$$-------------$",
"-O   %====*&O@$$----------------",
"-$O   %===&X+$$-----------------",
"--%+   %=%.+$%------------------",
"---%+   + +$%-------------------",
"----&$.  O$%--------------------",
"------$.O$%---------------------"
};
