/* XPM */
static const char * qcad_xpm[] = {
"32 32 100 2",
"  	c None",
". 	c #000080",
"+ 	c #3F3F3F",
"@ 	c #E1E1F0",
"# 	c #00007F",
"$ 	c #4444A2",
"% 	c #FEFEFE",
"& 	c #010180",
"* 	c #E0E0EF",
"= 	c #01017F",
"- 	c #02027F",
"; 	c #00007E",
"> 	c #0A0A84",
", 	c #0B0B84",
"' 	c #090984",
") 	c #141489",
"! 	c #131389",
"~ 	c #121287",
"{ 	c #151589",
"] 	c #1C1C8C",
"^ 	c #1E1E8E",
"/ 	c #1D1D8E",
"( 	c #1D1D8D",
"_ 	c #000000",
": 	c #1F1F8E",
"< 	c #DFDFEE",
"[ 	c #262691",
"} 	c #272793",
"| 	c #272792",
"1 	c #FFFFC5",
"2 	c #FFDEAC",
"3 	c #282893",
"4 	c #313198",
"5 	c #313197",
"6 	c #303096",
"7 	c #C5C2C5",
"8 	c #FFFFFF",
"9 	c #FF8100",
"0 	c #3A3A9D",
"a 	c #3A3A9C",
"b 	c #39399B",
"c 	c #4343A0",
"d 	c #4E4EA6",
"e 	c #C5C2FF",
"f 	c #4E4EA7",
"g 	c #5757A9",
"h 	c #5858AB",
"i 	c #5858AA",
"j 	c #6262AF",
"k 	c #6161AE",
"l 	c #6262B0",
"m 	c #6B6BB4",
"n 	c #6A6AB3",
"o 	c #6B6BB5",
"p 	c #7575B9",
"q 	c #7474B8",
"r 	c #7575BA",
"s 	c #7E7EBD",
"t 	c #7F7FBE",
"u 	c #7F7FBF",
"v 	c #8989C4",
"w 	c #8787C2",
"x 	c #8888C3",
"y 	c #8989C3",
"z 	c #9393C8",
"A 	c #9393C9",
"B 	c #9191C7",
"C 	c #9292C8",
"D 	c #9C9CCD",
"E 	c #9C9CCE",
"F 	c #9A9ACC",
"G 	c #9B9BCD",
"H 	c #A5A5D2",
"I 	c #A6A6D3",
"J 	c #A4A4D1",
"K 	c #AFAFD6",
"L 	c #B0B0D7",
"M 	c #AEAED5",
"N 	c #B9B9DB",
"O 	c #B8B8DA",
"P 	c #B9B9DA",
"Q 	c #C3C3E0",
"R 	c #C4C4E1",
"S 	c #C3C3DF",
"T 	c #C2C2DF",
"U 	c #010101",
"V 	c #CCCCE5",
"W 	c #CDCDE6",
"X 	c #CCCCE4",
"Y 	c #CBCBE4",
"Z 	c #D6D6EA",
"` 	c #D7D7EB",
" .	c #D5D5E9",
"..	c #D6D6E9",
"+.	c #EAEAF4",
"@.	c #EBEBF5",
"#.	c #E9E9F3",
"$.	c #F4F4F9",
"%.	c #F5F5FA",
"&.	c #F3F3F8",
". + + + . + + + . . . . . . . . . . . . . . . . . . . . . . . . ",
"+       +       . @ @ @ @ @ @ @ @ @ @ @ @ @ @ @ @ @ @ @ @ @ @ . ",
"+       +     . @ @ # # # # # # # # # # # # # # # # # # # # $ . ",
"+     % +   & * * = = = = = = = = = - - - # # # # ; = = # # $ . ",
"& + + + & & * * > > > > > > > > > > , , ' ' ' ' ' , , , > ' $ . ",
"+       & * * ) ) ) ) ! ~ ~ ! ) ) ) { ! ! ! ! ! { { { { ) ! $ . ",
"+     & * * ] ] ^ / ] ] ( ( ] / ^ ^ / / / _ _ : : : : : ^ / $ . ",
"+   & * < [ } } [ [ | | _ _ | [ } } } } _ 1 2 _ 3 3 3 3 } } $ . ",
"& & @ < 4 4 5 5 6 5 _ _ 7 8 _ 5 4 4 4 _ 1 2 9 4 4 4 4 4 4 4 $ . ",
"& * @ 0 0 a a b _ _ 7 8 8 8 8 _ 0 0 _ 1 2 9 _ 0 0 0 0 0 0 0 $ . ",
"& @ $ c c c _ _ 7 8 8 8 8 8 8 8 _ _ 1 2 9 _ $ $ $ $ $ $ $ $ $ . ",
"; < d d _ _ 7 8 8 e 8 8 8 8 8 8 _ 1 2 9 _ d d d d d d d d f $ . ",
"# * _ _ 7 8 8 8 8 8 e 8 8 8 8 _ 1 2 9 _ g h i i i i i i i h $ . ",
"& _ 7 8 8 8 8 8 8 8 8 e 8 e _ 1 2 9 _ _ j k l j j j j j j l $ . ",
"; * _ 8 8 8 8 8 8 8 8 e e _ 1 2 9 _ 8 8 _ m n o m m m m m o $ . ",
". < p _ 8 8 8 8 8 e e 8 _ 7 2 9 _ 8 8 8 8 _ p q r p p p p r $ . ",
"& @ s t _ 8 8 8 8 e 8 8 _ 7 7 _ 8 e e e 8 8 _ t s u t t t u $ . ",
"& * v w x _ 8 8 8 8 e 8 _ _ _ 8 e 8 8 e e 8 8 _ x w v y y v $ . ",
"& * z A B C _ 8 8 8 8 e 8 8 8 8 e 8 8 8 e 8 8 8 _ C B A z A $ . ",
"& * D D E F G _ 8 8 8 8 8 8 8 8 e e 8 8 e 8 8 8 8 _ G F E E $ . ",
"& * H H H I J H _ 8 8 8 8 8 8 8 8 e e e 8 8 8 8 8 7 _ H J $ . + ",
"& * K K K K L M L _ 8 8 8 8 8 8 8 8 8 8 8 8 8 7 _ _ K K c .   _ ",
"& * N N N N N N O N _ 8 8 8 8 8 8 8 8 8 8 7 _ _ N P O c &   8 + ",
"& * Q Q Q Q Q Q R R Q _ 8 8 8 8 8 8 8 7 _ _ Q S T T $ & U + + . ",
"& * V V V V V V V W W V _ 8 8 8 8 7 _ _ V X Y Y V $ & +       + ",
"& * Z Z Z Z Z Z Z Z `  .Z _ 8 7 _ _ ` .. .` Z Z $ &   +       + ",
"& * * * * * * * * * * @ < * _ _ @ < < < @ @ * $ &   % +     8 + ",
"& * +.+.+.+.+.+.+.+.+.+.@.#.@.#.#.#.@.+.+.+.$ & + + + & + + + . ",
"& * $.$.$.$.$.$.$.$.$.%.%.%.%.&.%.%.$.$.$.$ & +       +       + ",
"& * % % % % % % % % % % % % % % % % % % $ &   +       +       + ",
". @ $ $ $ $ $ $ $ $ $ $ $ $ $ $ $ $ $ $ .   8 +     8 +     8 + ",
". . . . . . . . . . . . . . . . . . . . + + + . + + + . + + + . "};


